<?xml version="1.0" standalone="no"?>
<!DOCTYPE svg PUBLIC "-//W3C//DTD SVG 20010904//EN"
 "http://www.w3.org/TR/2001/REC-SVG-20010904/DTD/svg10.dtd">
<svg version="1.0" xmlns="http://www.w3.org/2000/svg"
 width="64.000000pt" height="64.000000pt" viewBox="0 0 64.000000 64.000000"
 preserveAspectRatio="xMidYMid meet">
<metadata>
Created by potrace 1.11, written by Peter Selinger 2001-2013
</metadata>
<g transform="translate(0.000000,64.000000) scale(0.100000,-0.100000)"
fill="#000000" stroke="none">
<path d="M208 624 c-16 -8 -28 -12 -28 -9 0 3 -7 0 -16 -7 -128 -104 -164
-167 -164 -288 0 -53 5 -91 15 -110 9 -17 13 -30 10 -30 -4 0 0 -7 7 -15 7 -8
27 -32 43 -54 17 -22 36 -40 43 -41 6 0 12 -4 12 -9 0 -5 25 -21 57 -35 49
-24 67 -27 142 -25 71 2 93 6 132 28 125 69 179 158 179 293 0 71 -4 90 -28
134 -15 28 -36 62 -47 76 -22 27 -95 77 -138 96 -40 17 -185 15 -219 -4z m62
-193 c0 -5 11 -32 23 -62 l24 -53 24 62 c19 50 28 62 46 62 l23 0 -19 -47
c-10 -27 -31 -79 -46 -118 -16 -38 -35 -78 -43 -87 -19 -22 -62 -24 -62 -3 0
8 6 15 14 15 7 0 19 14 26 30 11 26 10 37 -2 68 -9 20 -25 61 -37 90 l-21 52
25 0 c14 0 25 -4 25 -9z"/>
</g>
</svg>
